# xmcd
#
# Track frame offsets:
#	150
#	24632
#	38771
#	56669
#	76999
#	96393
#	127118
#	147880
#	169022
#	190600
#	201572
#	220376
#	241377
#	266614
#	306457
#	322159
#	336898
#
# Disc length: 4596 seconds
#
# Revision: 0
# Processed by: cddbd v1.5.2PL0 Copyright (c) Steve Scherf et al.
# Submitted via: dBpowerAMP V4.0
#
DISCID=0811f211
DTITLE=Stevie Ray Vaughan - The Essential Stevie Ray Vaughan and Double Trouble
DYEAR=1900
DGENRE=Blues
TTITLE0=Say What!
TTITLE1=Look at Little Sister
TTITLE2=Change It
TTITLE3=Come On, pt.3
TTITLE4=Life Without You
TTITLE5=Little Wing
TTITLE6=Willie the Wimp (live)
TTITLE7=Superstition (live)
TTITLE8=Leave My Girl Alone (live)
TTITLE9=The House Is Rockin'
TTITLE10=Crossfire
TTITLE11=Tightrope
TTITLE12=Wall of Denial
TTITLE13=Riviera Paradise
TTITLE14=Telephone Song
TTITLE15=The Long Way From Home
TTITLE16=Life by the Drop
EXTD=
EXTT0=
EXTT1=
EXTT2=
EXTT3=
EXTT4=
EXTT5=
EXTT6=
EXTT7=
EXTT8=
EXTT9=
EXTT10=
EXTT11=
EXTT12=
EXTT13=
EXTT14=
EXTT15=
EXTT16=
PLAYORDER=
